<mxfile host="Electron" modified="2023-12-07T17:55:10.050Z" agent="Mozilla/5.0 (Windows NT 10.0; Win64; x64) AppleWebKit/537.36 (KHTML, like Gecko) draw.io/22.1.2 Chrome/114.0.5735.289 Electron/25.9.4 Safari/537.36" etag="cRSYLI1Yyxy_NhxH3xpp" version="22.1.2" type="device">
  <diagram id="R2lEEEUBdFMjLlhIrx00" name="Page-1">
    <mxGraphModel dx="835" dy="731" grid="1" gridSize="10" guides="1" tooltips="1" connect="1" arrows="1" fold="1" page="0" pageScale="1" pageWidth="850" pageHeight="1100" math="0" shadow="0" extFonts="Permanent Marker^https://fonts.googleapis.com/css?family=Permanent+Marker">
      <root>
        <mxCell id="0" />
        <mxCell id="1" parent="0" />
        <mxCell id="dofvJWAU9MkykIK9WyIS-1" value="STATION" style="whiteSpace=wrap;html=1;align=center;" parent="1" vertex="1">
          <mxGeometry x="1268.76" y="303.5" width="100" height="40" as="geometry" />
        </mxCell>
        <mxCell id="dofvJWAU9MkykIK9WyIS-2" value="" style="endArrow=none;html=1;rounded=0;entryX=0;entryY=0.5;entryDx=0;entryDy=0;exitX=1;exitY=0.5;exitDx=0;exitDy=0;" parent="1" source="dofvJWAU9MkykIK9WyIS-58" target="dofvJWAU9MkykIK9WyIS-72" edge="1">
          <mxGeometry relative="1" as="geometry">
            <mxPoint x="1297" y="591" as="sourcePoint" />
            <mxPoint x="1100" y="375.86" as="targetPoint" />
          </mxGeometry>
        </mxCell>
        <mxCell id="dofvJWAU9MkykIK9WyIS-3" value="1" style="resizable=0;html=1;whiteSpace=wrap;align=right;verticalAlign=bottom;" parent="dofvJWAU9MkykIK9WyIS-2" connectable="0" vertex="1">
          <mxGeometry x="1" relative="1" as="geometry">
            <mxPoint x="-9" as="offset" />
          </mxGeometry>
        </mxCell>
        <mxCell id="dofvJWAU9MkykIK9WyIS-4" value="ARRIVAL_STATION" style="shape=rhombus;perimeter=rhombusPerimeter;whiteSpace=wrap;html=1;align=center;" parent="1" vertex="1">
          <mxGeometry x="1330" y="420" width="175" height="60" as="geometry" />
        </mxCell>
        <mxCell id="dofvJWAU9MkykIK9WyIS-5" value="DEPARTURE_STATION" style="shape=rhombus;perimeter=rhombusPerimeter;whiteSpace=wrap;html=1;align=center;" parent="1" vertex="1">
          <mxGeometry x="1150" y="417.5" width="172.5" height="65" as="geometry" />
        </mxCell>
        <mxCell id="dofvJWAU9MkykIK9WyIS-6" value="" style="endArrow=none;html=1;rounded=0;entryX=0.5;entryY=0;entryDx=0;entryDy=0;exitX=0.25;exitY=1;exitDx=0;exitDy=0;" parent="1" source="dofvJWAU9MkykIK9WyIS-1" target="dofvJWAU9MkykIK9WyIS-5" edge="1">
          <mxGeometry relative="1" as="geometry">
            <mxPoint x="1095" y="445" as="sourcePoint" />
            <mxPoint x="1085" y="615" as="targetPoint" />
          </mxGeometry>
        </mxCell>
        <mxCell id="dofvJWAU9MkykIK9WyIS-7" value="1" style="resizable=0;html=1;whiteSpace=wrap;align=right;verticalAlign=bottom;" parent="dofvJWAU9MkykIK9WyIS-6" connectable="0" vertex="1">
          <mxGeometry x="1" relative="1" as="geometry">
            <mxPoint x="23" as="offset" />
          </mxGeometry>
        </mxCell>
        <mxCell id="dofvJWAU9MkykIK9WyIS-8" value="" style="endArrow=none;html=1;rounded=0;entryX=0.5;entryY=0;entryDx=0;entryDy=0;exitX=0.75;exitY=1;exitDx=0;exitDy=0;" parent="1" source="dofvJWAU9MkykIK9WyIS-1" target="dofvJWAU9MkykIK9WyIS-4" edge="1">
          <mxGeometry relative="1" as="geometry">
            <mxPoint x="1448.36" y="420" as="sourcePoint" />
            <mxPoint x="1268.36" y="510" as="targetPoint" />
          </mxGeometry>
        </mxCell>
        <mxCell id="dofvJWAU9MkykIK9WyIS-9" value="1" style="resizable=0;html=1;whiteSpace=wrap;align=right;verticalAlign=bottom;" parent="dofvJWAU9MkykIK9WyIS-8" connectable="0" vertex="1">
          <mxGeometry x="1" relative="1" as="geometry">
            <mxPoint x="18" as="offset" />
          </mxGeometry>
        </mxCell>
        <mxCell id="dofvJWAU9MkykIK9WyIS-10" value="Station_code" style="ellipse;whiteSpace=wrap;html=1;align=center;fontStyle=4;" parent="1" vertex="1">
          <mxGeometry x="1133.76" y="233.5" width="100" height="40" as="geometry" />
        </mxCell>
        <mxCell id="dofvJWAU9MkykIK9WyIS-11" value="Location" style="ellipse;whiteSpace=wrap;html=1;align=center;" parent="1" vertex="1">
          <mxGeometry x="1416.83" y="233.5" width="100" height="40" as="geometry" />
        </mxCell>
        <mxCell id="dofvJWAU9MkykIK9WyIS-12" value="Station_name" style="ellipse;whiteSpace=wrap;html=1;align=center;" parent="1" vertex="1">
          <mxGeometry x="1268.76" y="203.5" width="100" height="40" as="geometry" />
        </mxCell>
        <mxCell id="dofvJWAU9MkykIK9WyIS-13" value="" style="endArrow=none;html=1;rounded=0;entryX=0;entryY=0.5;entryDx=0;entryDy=0;exitX=1;exitY=0.5;exitDx=0;exitDy=0;" parent="1" source="dofvJWAU9MkykIK9WyIS-10" target="dofvJWAU9MkykIK9WyIS-1" edge="1">
          <mxGeometry relative="1" as="geometry">
            <mxPoint x="1198.47" y="333.5" as="sourcePoint" />
            <mxPoint x="1208.47" y="403.5" as="targetPoint" />
          </mxGeometry>
        </mxCell>
        <mxCell id="dofvJWAU9MkykIK9WyIS-14" value="" style="endArrow=none;html=1;rounded=0;exitX=0.5;exitY=1;exitDx=0;exitDy=0;entryX=0.5;entryY=0;entryDx=0;entryDy=0;" parent="1" source="dofvJWAU9MkykIK9WyIS-12" target="dofvJWAU9MkykIK9WyIS-1" edge="1">
          <mxGeometry relative="1" as="geometry">
            <mxPoint x="1238.47" y="273.5" as="sourcePoint" />
            <mxPoint x="1398.47" y="273.5" as="targetPoint" />
          </mxGeometry>
        </mxCell>
        <mxCell id="dofvJWAU9MkykIK9WyIS-15" value="" style="endArrow=none;html=1;rounded=0;exitX=0;exitY=0.5;exitDx=0;exitDy=0;entryX=1;entryY=0.5;entryDx=0;entryDy=0;" parent="1" source="dofvJWAU9MkykIK9WyIS-11" target="dofvJWAU9MkykIK9WyIS-1" edge="1">
          <mxGeometry relative="1" as="geometry">
            <mxPoint x="1238.47" y="273.5" as="sourcePoint" />
            <mxPoint x="1398.47" y="273.5" as="targetPoint" />
          </mxGeometry>
        </mxCell>
        <mxCell id="dofvJWAU9MkykIK9WyIS-20" value="CUSTOMER" style="whiteSpace=wrap;html=1;align=center;" parent="1" vertex="1">
          <mxGeometry x="1130.2900000000002" y="790" width="100" height="40" as="geometry" />
        </mxCell>
        <mxCell id="dofvJWAU9MkykIK9WyIS-21" value="Customer_id" style="ellipse;whiteSpace=wrap;html=1;align=center;fontStyle=4;" parent="1" vertex="1">
          <mxGeometry x="1020" y="725" width="100" height="40" as="geometry" />
        </mxCell>
        <mxCell id="dofvJWAU9MkykIK9WyIS-22" value="Customer_name" style="ellipse;whiteSpace=wrap;html=1;align=center;" parent="1" vertex="1">
          <mxGeometry x="1130.2900000000002" y="700" width="100" height="40" as="geometry" />
        </mxCell>
        <mxCell id="dofvJWAU9MkykIK9WyIS-23" value="Data" style="ellipse;whiteSpace=wrap;html=1;align=center;" parent="1" vertex="1">
          <mxGeometry x="1260.8300000000002" y="820" width="105" height="40" as="geometry" />
        </mxCell>
        <mxCell id="dofvJWAU9MkykIK9WyIS-24" value="" style="endArrow=none;html=1;rounded=0;entryX=0;entryY=0.5;entryDx=0;entryDy=0;exitX=0.5;exitY=1;exitDx=0;exitDy=0;" parent="1" source="dofvJWAU9MkykIK9WyIS-21" target="dofvJWAU9MkykIK9WyIS-20" edge="1">
          <mxGeometry relative="1" as="geometry">
            <mxPoint x="1155.2900000000002" y="725" as="sourcePoint" />
            <mxPoint x="1315.2900000000002" y="725" as="targetPoint" />
          </mxGeometry>
        </mxCell>
        <mxCell id="dofvJWAU9MkykIK9WyIS-25" value="" style="endArrow=none;html=1;rounded=0;entryX=1;entryY=1;entryDx=0;entryDy=0;exitX=0;exitY=0.5;exitDx=0;exitDy=0;" parent="1" source="dofvJWAU9MkykIK9WyIS-23" target="dofvJWAU9MkykIK9WyIS-20" edge="1">
          <mxGeometry relative="1" as="geometry">
            <mxPoint x="1155.2900000000002" y="795" as="sourcePoint" />
            <mxPoint x="1315.2900000000002" y="795" as="targetPoint" />
          </mxGeometry>
        </mxCell>
        <mxCell id="dofvJWAU9MkykIK9WyIS-26" value="" style="endArrow=none;html=1;rounded=0;exitX=0;exitY=0;exitDx=0;exitDy=0;entryX=1;entryY=1;entryDx=0;entryDy=0;" parent="1" source="dofvJWAU9MkykIK9WyIS-28" target="dofvJWAU9MkykIK9WyIS-23" edge="1">
          <mxGeometry relative="1" as="geometry">
            <mxPoint x="1545.2900000000002" y="885" as="sourcePoint" />
            <mxPoint x="1385.2900000000002" y="855" as="targetPoint" />
          </mxGeometry>
        </mxCell>
        <mxCell id="dofvJWAU9MkykIK9WyIS-27" value="" style="endArrow=none;html=1;rounded=0;entryX=1;entryY=0;entryDx=0;entryDy=0;exitX=0;exitY=0.5;exitDx=0;exitDy=0;" parent="1" source="dofvJWAU9MkykIK9WyIS-30" target="dofvJWAU9MkykIK9WyIS-23" edge="1">
          <mxGeometry relative="1" as="geometry">
            <mxPoint x="1615.289999999987" y="865" as="sourcePoint" />
            <mxPoint x="1505.2900000000002" y="785" as="targetPoint" />
          </mxGeometry>
        </mxCell>
        <mxCell id="dofvJWAU9MkykIK9WyIS-28" value="Preferences" style="ellipse;shape=doubleEllipse;margin=3;whiteSpace=wrap;html=1;align=center;" parent="1" vertex="1">
          <mxGeometry x="1365.8300000000002" y="890" width="100" height="40" as="geometry" />
        </mxCell>
        <mxCell id="dofvJWAU9MkykIK9WyIS-29" value="Transportation_history" style="ellipse;shape=doubleEllipse;margin=3;whiteSpace=wrap;html=1;align=center;fontSize=11;" parent="1" vertex="1">
          <mxGeometry x="1210" y="900" width="130" height="40" as="geometry" />
        </mxCell>
        <mxCell id="dofvJWAU9MkykIK9WyIS-30" value="Searches" style="ellipse;shape=doubleEllipse;margin=3;whiteSpace=wrap;html=1;align=center;" parent="1" vertex="1">
          <mxGeometry x="1387.5000000000002" y="800" width="100" height="40" as="geometry" />
        </mxCell>
        <mxCell id="dofvJWAU9MkykIK9WyIS-31" value="" style="endArrow=none;html=1;rounded=0;entryX=0.5;entryY=1;entryDx=0;entryDy=0;" parent="1" source="dofvJWAU9MkykIK9WyIS-20" target="dofvJWAU9MkykIK9WyIS-22" edge="1">
          <mxGeometry relative="1" as="geometry">
            <mxPoint x="1135.2900000000002" y="835" as="sourcePoint" />
            <mxPoint x="1295.2900000000002" y="835" as="targetPoint" />
          </mxGeometry>
        </mxCell>
        <mxCell id="dofvJWAU9MkykIK9WyIS-32" value="Phone" style="ellipse;whiteSpace=wrap;html=1;align=center;" parent="1" vertex="1">
          <mxGeometry x="1245.8300000000002" y="710" width="100" height="40" as="geometry" />
        </mxCell>
        <mxCell id="dofvJWAU9MkykIK9WyIS-33" value="" style="endArrow=none;html=1;rounded=0;entryX=0.5;entryY=1;entryDx=0;entryDy=0;exitX=1;exitY=0;exitDx=0;exitDy=0;" parent="1" source="dofvJWAU9MkykIK9WyIS-20" target="dofvJWAU9MkykIK9WyIS-32" edge="1">
          <mxGeometry relative="1" as="geometry">
            <mxPoint x="1215.2900000000002" y="725" as="sourcePoint" />
            <mxPoint x="1375.2900000000002" y="725" as="targetPoint" />
          </mxGeometry>
        </mxCell>
        <mxCell id="dofvJWAU9MkykIK9WyIS-34" value="SEAT" style="shape=ext;margin=3;double=1;whiteSpace=wrap;html=1;align=center;" parent="1" vertex="1">
          <mxGeometry x="825" y="910" width="100" height="40" as="geometry" />
        </mxCell>
        <mxCell id="dofvJWAU9MkykIK9WyIS-35" value="RESERVATION" style="shape=rhombus;double=1;perimeter=rhombusPerimeter;whiteSpace=wrap;html=1;align=center;fontSize=11;" parent="1" vertex="1">
          <mxGeometry x="815" y="790" width="120" height="60" as="geometry" />
        </mxCell>
        <mxCell id="dofvJWAU9MkykIK9WyIS-36" value="&lt;span style=&quot;border-bottom: 1px dotted&quot;&gt;Seat_number&lt;/span&gt;" style="ellipse;whiteSpace=wrap;html=1;align=center;" parent="1" vertex="1">
          <mxGeometry x="950" y="910" width="100" height="40" as="geometry" />
        </mxCell>
        <mxCell id="dofvJWAU9MkykIK9WyIS-37" value="" style="endArrow=none;html=1;rounded=0;entryX=0.5;entryY=0;entryDx=0;entryDy=0;exitX=0.5;exitY=1;exitDx=0;exitDy=0;" parent="1" source="dofvJWAU9MkykIK9WyIS-62" target="dofvJWAU9MkykIK9WyIS-35" edge="1">
          <mxGeometry relative="1" as="geometry">
            <mxPoint x="810" y="660" as="sourcePoint" />
            <mxPoint x="1020" y="740" as="targetPoint" />
          </mxGeometry>
        </mxCell>
        <mxCell id="dofvJWAU9MkykIK9WyIS-38" value="M" style="resizable=0;html=1;whiteSpace=wrap;align=right;verticalAlign=bottom;" parent="dofvJWAU9MkykIK9WyIS-37" connectable="0" vertex="1">
          <mxGeometry x="1" relative="1" as="geometry">
            <mxPoint x="-3" y="2" as="offset" />
          </mxGeometry>
        </mxCell>
        <mxCell id="dofvJWAU9MkykIK9WyIS-39" value="" style="endArrow=none;html=1;rounded=0;exitX=1;exitY=0.5;exitDx=0;exitDy=0;entryX=0;entryY=0.5;entryDx=0;entryDy=0;" parent="1" source="dofvJWAU9MkykIK9WyIS-34" target="dofvJWAU9MkykIK9WyIS-36" edge="1">
          <mxGeometry relative="1" as="geometry">
            <mxPoint x="815.29" y="850" as="sourcePoint" />
            <mxPoint x="975.2899999999998" y="850" as="targetPoint" />
          </mxGeometry>
        </mxCell>
        <mxCell id="dofvJWAU9MkykIK9WyIS-40" value="" style="shape=link;html=1;rounded=0;entryX=0.5;entryY=1;entryDx=0;entryDy=0;exitX=0.5;exitY=0;exitDx=0;exitDy=0;" parent="1" source="dofvJWAU9MkykIK9WyIS-34" target="dofvJWAU9MkykIK9WyIS-35" edge="1">
          <mxGeometry relative="1" as="geometry">
            <mxPoint x="555" y="880" as="sourcePoint" />
            <mxPoint x="715" y="880" as="targetPoint" />
          </mxGeometry>
        </mxCell>
        <mxCell id="dofvJWAU9MkykIK9WyIS-41" value="N" style="resizable=0;html=1;whiteSpace=wrap;align=right;verticalAlign=bottom;" parent="dofvJWAU9MkykIK9WyIS-40" connectable="0" vertex="1">
          <mxGeometry x="1" relative="1" as="geometry">
            <mxPoint x="-5" y="20" as="offset" />
          </mxGeometry>
        </mxCell>
        <mxCell id="dofvJWAU9MkykIK9WyIS-42" value="Available_seats" style="ellipse;whiteSpace=wrap;html=1;align=center;" parent="1" vertex="1">
          <mxGeometry x="910" y="500" width="100" height="40" as="geometry" />
        </mxCell>
        <mxCell id="dofvJWAU9MkykIK9WyIS-43" style="edgeStyle=orthogonalEdgeStyle;rounded=0;orthogonalLoop=1;jettySize=auto;html=1;exitX=0.5;exitY=1;exitDx=0;exitDy=0;" parent="1" edge="1">
          <mxGeometry relative="1" as="geometry">
            <mxPoint x="1323.63" y="525.86" as="sourcePoint" />
            <mxPoint x="1323.63" y="525.86" as="targetPoint" />
          </mxGeometry>
        </mxCell>
        <mxCell id="dofvJWAU9MkykIK9WyIS-44" value="" style="shape=link;html=1;rounded=0;entryX=0.5;entryY=1;entryDx=0;entryDy=0;exitX=0.25;exitY=0;exitDx=0;exitDy=0;" parent="1" source="dofvJWAU9MkykIK9WyIS-58" target="dofvJWAU9MkykIK9WyIS-5" edge="1">
          <mxGeometry relative="1" as="geometry">
            <mxPoint x="1325" y="475" as="sourcePoint" />
            <mxPoint x="1405" y="545" as="targetPoint" />
          </mxGeometry>
        </mxCell>
        <mxCell id="dofvJWAU9MkykIK9WyIS-45" value="N" style="resizable=0;html=1;whiteSpace=wrap;align=right;verticalAlign=bottom;" parent="dofvJWAU9MkykIK9WyIS-44" connectable="0" vertex="1">
          <mxGeometry x="1" relative="1" as="geometry">
            <mxPoint x="-5" y="25" as="offset" />
          </mxGeometry>
        </mxCell>
        <mxCell id="dofvJWAU9MkykIK9WyIS-46" value="TRAIN" style="whiteSpace=wrap;html=1;align=center;" parent="1" vertex="1">
          <mxGeometry x="825" y="303.5" width="100" height="40" as="geometry" />
        </mxCell>
        <mxCell id="dofvJWAU9MkykIK9WyIS-47" value="ASSIGNED" style="shape=rhombus;perimeter=rhombusPerimeter;whiteSpace=wrap;html=1;align=center;" parent="1" vertex="1">
          <mxGeometry x="815" y="422.5" width="120" height="60" as="geometry" />
        </mxCell>
        <mxCell id="dofvJWAU9MkykIK9WyIS-48" value="Seat_capacity" style="ellipse;whiteSpace=wrap;html=1;align=center;direction=west;" parent="1" vertex="1">
          <mxGeometry x="770" y="203.5" width="100" height="40" as="geometry" />
        </mxCell>
        <mxCell id="dofvJWAU9MkykIK9WyIS-49" value="" style="endArrow=none;html=1;rounded=0;exitX=1;exitY=0;exitDx=0;exitDy=0;" parent="1" source="dofvJWAU9MkykIK9WyIS-46" target="dofvJWAU9MkykIK9WyIS-57" edge="1">
          <mxGeometry relative="1" as="geometry">
            <mxPoint x="975" y="350" as="sourcePoint" />
            <mxPoint x="975" y="350" as="targetPoint" />
          </mxGeometry>
        </mxCell>
        <mxCell id="dofvJWAU9MkykIK9WyIS-50" value="" style="endArrow=none;html=1;rounded=0;exitX=0.5;exitY=0;exitDx=0;exitDy=0;entryX=0.25;entryY=0;entryDx=0;entryDy=0;" parent="1" source="dofvJWAU9MkykIK9WyIS-48" target="dofvJWAU9MkykIK9WyIS-46" edge="1">
          <mxGeometry relative="1" as="geometry">
            <mxPoint x="1045" y="230" as="sourcePoint" />
            <mxPoint x="1095" y="240" as="targetPoint" />
          </mxGeometry>
        </mxCell>
        <mxCell id="dofvJWAU9MkykIK9WyIS-51" value="" style="endArrow=none;html=1;rounded=0;exitX=0.5;exitY=1;exitDx=0;exitDy=0;entryX=0.5;entryY=0;entryDx=0;entryDy=0;" parent="1" source="dofvJWAU9MkykIK9WyIS-46" target="dofvJWAU9MkykIK9WyIS-47" edge="1">
          <mxGeometry relative="1" as="geometry">
            <mxPoint x="760" y="370" as="sourcePoint" />
            <mxPoint x="825" y="370" as="targetPoint" />
            <Array as="points" />
          </mxGeometry>
        </mxCell>
        <mxCell id="dofvJWAU9MkykIK9WyIS-52" value="1" style="resizable=0;html=1;whiteSpace=wrap;align=right;verticalAlign=bottom;" parent="dofvJWAU9MkykIK9WyIS-51" connectable="0" vertex="1">
          <mxGeometry x="1" relative="1" as="geometry" />
        </mxCell>
        <mxCell id="dofvJWAU9MkykIK9WyIS-53" value="" style="shape=link;html=1;rounded=0;entryX=0.5;entryY=1;entryDx=0;entryDy=0;exitX=0.5;exitY=0;exitDx=0;exitDy=0;" parent="1" source="dofvJWAU9MkykIK9WyIS-62" target="dofvJWAU9MkykIK9WyIS-47" edge="1">
          <mxGeometry relative="1" as="geometry">
            <mxPoint x="785" y="590" as="sourcePoint" />
            <mxPoint x="570" y="620" as="targetPoint" />
          </mxGeometry>
        </mxCell>
        <mxCell id="dofvJWAU9MkykIK9WyIS-54" value="N" style="resizable=0;html=1;whiteSpace=wrap;align=right;verticalAlign=bottom;" parent="dofvJWAU9MkykIK9WyIS-53" connectable="0" vertex="1">
          <mxGeometry x="1" relative="1" as="geometry">
            <mxPoint x="15" y="20" as="offset" />
          </mxGeometry>
        </mxCell>
        <mxCell id="dofvJWAU9MkykIK9WyIS-55" value="Train_id" style="ellipse;whiteSpace=wrap;html=1;align=center;fontStyle=4;" parent="1" vertex="1">
          <mxGeometry x="700" y="263.5" width="100" height="40" as="geometry" />
        </mxCell>
        <mxCell id="dofvJWAU9MkykIK9WyIS-56" value="" style="endArrow=none;html=1;rounded=0;entryX=0;entryY=0;entryDx=0;entryDy=0;exitX=1;exitY=1;exitDx=0;exitDy=0;" parent="1" source="dofvJWAU9MkykIK9WyIS-55" target="dofvJWAU9MkykIK9WyIS-46" edge="1">
          <mxGeometry relative="1" as="geometry">
            <mxPoint x="875" y="230" as="sourcePoint" />
            <mxPoint x="1055" y="320" as="targetPoint" />
          </mxGeometry>
        </mxCell>
        <mxCell id="dofvJWAU9MkykIK9WyIS-57" value="Train_type" style="ellipse;whiteSpace=wrap;html=1;align=center;" parent="1" vertex="1">
          <mxGeometry x="960" y="263.5" width="95" height="40" as="geometry" />
        </mxCell>
        <mxCell id="dofvJWAU9MkykIK9WyIS-58" value="SCHEDULED_TCDD_JOURNEYS" style="whiteSpace=wrap;html=1;align=center;" parent="1" vertex="1">
          <mxGeometry x="1230.29" y="590" width="195.83" height="40" as="geometry" />
        </mxCell>
        <mxCell id="dofvJWAU9MkykIK9WyIS-59" value="" style="endArrow=none;html=1;rounded=0;entryX=1;entryY=0.5;entryDx=0;entryDy=0;exitX=0;exitY=0.75;exitDx=0;exitDy=0;" parent="1" source="dofvJWAU9MkykIK9WyIS-20" target="dofvJWAU9MkykIK9WyIS-35" edge="1">
          <mxGeometry relative="1" as="geometry">
            <mxPoint x="970.2899999999998" y="820" as="sourcePoint" />
            <mxPoint x="990.2899999999998" y="788.5699999999999" as="targetPoint" />
          </mxGeometry>
        </mxCell>
        <mxCell id="dofvJWAU9MkykIK9WyIS-60" value="1" style="resizable=0;html=1;whiteSpace=wrap;align=right;verticalAlign=bottom;" parent="dofvJWAU9MkykIK9WyIS-59" connectable="0" vertex="1">
          <mxGeometry x="1" relative="1" as="geometry">
            <mxPoint x="4" y="-1" as="offset" />
          </mxGeometry>
        </mxCell>
        <mxCell id="dofvJWAU9MkykIK9WyIS-61" value="" style="endArrow=none;html=1;rounded=0;entryX=0.5;entryY=1;entryDx=0;entryDy=0;exitX=0.5;exitY=0;exitDx=0;exitDy=0;" parent="1" source="dofvJWAU9MkykIK9WyIS-29" target="dofvJWAU9MkykIK9WyIS-23" edge="1">
          <mxGeometry relative="1" as="geometry">
            <mxPoint x="1170.2900000000002" y="875" as="sourcePoint" />
            <mxPoint x="1330.2900000000002" y="875" as="targetPoint" />
          </mxGeometry>
        </mxCell>
        <mxCell id="dofvJWAU9MkykIK9WyIS-62" value="JOURNEY_INSTANCE" style="shape=ext;margin=3;double=1;whiteSpace=wrap;html=1;align=center;" parent="1" vertex="1">
          <mxGeometry x="800" y="590" width="150" height="40" as="geometry" />
        </mxCell>
        <mxCell id="dofvJWAU9MkykIK9WyIS-63" value="" style="shape=link;html=1;rounded=0;exitX=1;exitY=0.5;exitDx=0;exitDy=0;entryX=0;entryY=0.5;entryDx=0;entryDy=0;" parent="1" source="dofvJWAU9MkykIK9WyIS-62" target="dofvJWAU9MkykIK9WyIS-67" edge="1">
          <mxGeometry relative="1" as="geometry">
            <mxPoint x="853.75" y="604.6" as="sourcePoint" />
            <mxPoint x="1013.75" y="604.6" as="targetPoint" />
          </mxGeometry>
        </mxCell>
        <mxCell id="dofvJWAU9MkykIK9WyIS-64" value="N" style="resizable=0;html=1;whiteSpace=wrap;align=right;verticalAlign=bottom;" parent="dofvJWAU9MkykIK9WyIS-63" connectable="0" vertex="1">
          <mxGeometry x="1" relative="1" as="geometry" />
        </mxCell>
        <mxCell id="dofvJWAU9MkykIK9WyIS-65" value="" style="endArrow=none;html=1;rounded=0;exitX=0;exitY=0.5;exitDx=0;exitDy=0;entryX=1;entryY=0.5;entryDx=0;entryDy=0;" parent="1" source="dofvJWAU9MkykIK9WyIS-58" target="dofvJWAU9MkykIK9WyIS-67" edge="1">
          <mxGeometry relative="1" as="geometry">
            <mxPoint x="930" y="560" as="sourcePoint" />
            <mxPoint x="1120" y="590" as="targetPoint" />
          </mxGeometry>
        </mxCell>
        <mxCell id="dofvJWAU9MkykIK9WyIS-66" value="1" style="resizable=0;html=1;whiteSpace=wrap;align=right;verticalAlign=bottom;" parent="dofvJWAU9MkykIK9WyIS-65" connectable="0" vertex="1">
          <mxGeometry x="1" relative="1" as="geometry" />
        </mxCell>
        <mxCell id="dofvJWAU9MkykIK9WyIS-67" value="INSTANCE_OF" style="shape=rhombus;double=1;perimeter=rhombusPerimeter;whiteSpace=wrap;html=1;align=center;" parent="1" vertex="1">
          <mxGeometry x="1032" y="580" width="120" height="60" as="geometry" />
        </mxCell>
        <mxCell id="dofvJWAU9MkykIK9WyIS-68" value="Journey_code" style="ellipse;whiteSpace=wrap;html=1;align=center;fontStyle=4;" parent="1" vertex="1">
          <mxGeometry x="1382.79" y="670" width="125" height="40" as="geometry" />
        </mxCell>
        <mxCell id="dofvJWAU9MkykIK9WyIS-69" value="" style="endArrow=none;html=1;rounded=0;exitX=0.75;exitY=0;exitDx=0;exitDy=0;entryX=0.335;entryY=1.015;entryDx=0;entryDy=0;entryPerimeter=0;" parent="1" source="dofvJWAU9MkykIK9WyIS-62" target="dofvJWAU9MkykIK9WyIS-42" edge="1">
          <mxGeometry relative="1" as="geometry">
            <mxPoint x="830" y="540" as="sourcePoint" />
            <mxPoint x="937.0999999999999" y="511.1200000000001" as="targetPoint" />
          </mxGeometry>
        </mxCell>
        <mxCell id="dofvJWAU9MkykIK9WyIS-70" value="" style="endArrow=none;html=1;rounded=0;exitX=0.75;exitY=1;exitDx=0;exitDy=0;entryX=0;entryY=0;entryDx=0;entryDy=0;" parent="1" source="dofvJWAU9MkykIK9WyIS-58" target="dofvJWAU9MkykIK9WyIS-68" edge="1">
          <mxGeometry relative="1" as="geometry">
            <mxPoint x="1350" y="560" as="sourcePoint" />
            <mxPoint x="1390" y="690" as="targetPoint" />
          </mxGeometry>
        </mxCell>
        <mxCell id="dofvJWAU9MkykIK9WyIS-71" value="FARE" style="shape=ext;margin=3;double=1;whiteSpace=wrap;html=1;align=center;" parent="1" vertex="1">
          <mxGeometry x="1650.0000000000002" y="590" width="100" height="40" as="geometry" />
        </mxCell>
        <mxCell id="dofvJWAU9MkykIK9WyIS-72" value="HAS" style="shape=rhombus;double=1;perimeter=rhombusPerimeter;whiteSpace=wrap;html=1;align=center;" parent="1" vertex="1">
          <mxGeometry x="1460.0000000000002" y="580" width="120" height="60" as="geometry" />
        </mxCell>
        <mxCell id="dofvJWAU9MkykIK9WyIS-73" value="" style="endArrow=none;html=1;rounded=0;exitX=0.25;exitY=1;exitDx=0;exitDy=0;entryX=0.5;entryY=0;entryDx=0;entryDy=0;" parent="1" source="dofvJWAU9MkykIK9WyIS-71" target="dofvJWAU9MkykIK9WyIS-79" edge="1">
          <mxGeometry relative="1" as="geometry">
            <mxPoint x="1713.3600000000001" y="495" as="sourcePoint" />
            <mxPoint x="1773.3599999999838" y="635" as="targetPoint" />
          </mxGeometry>
        </mxCell>
        <mxCell id="dofvJWAU9MkykIK9WyIS-74" style="edgeStyle=orthogonalEdgeStyle;rounded=0;orthogonalLoop=1;jettySize=auto;html=1;exitX=0.5;exitY=1;exitDx=0;exitDy=0;" parent="1" edge="1">
          <mxGeometry relative="1" as="geometry">
            <mxPoint x="1473.3600000000001" y="690" as="sourcePoint" />
            <mxPoint x="1473.3600000000001" y="690" as="targetPoint" />
          </mxGeometry>
        </mxCell>
        <mxCell id="dofvJWAU9MkykIK9WyIS-75" value="" style="shape=link;html=1;rounded=0;entryX=1;entryY=0.5;entryDx=0;entryDy=0;exitX=0;exitY=0.5;exitDx=0;exitDy=0;" parent="1" source="dofvJWAU9MkykIK9WyIS-71" target="dofvJWAU9MkykIK9WyIS-72" edge="1">
          <mxGeometry relative="1" as="geometry">
            <mxPoint x="1538.3600000000001" y="500" as="sourcePoint" />
            <mxPoint x="1698.3600000000001" y="500" as="targetPoint" />
          </mxGeometry>
        </mxCell>
        <mxCell id="dofvJWAU9MkykIK9WyIS-76" value="N" style="resizable=0;html=1;whiteSpace=wrap;align=right;verticalAlign=bottom;" parent="dofvJWAU9MkykIK9WyIS-75" connectable="0" vertex="1">
          <mxGeometry x="1" relative="1" as="geometry">
            <mxPoint y="-10" as="offset" />
          </mxGeometry>
        </mxCell>
        <mxCell id="dofvJWAU9MkykIK9WyIS-77" value="&lt;span style=&quot;border-bottom: 1px dotted; font-size: 11px;&quot;&gt;Fare_code&lt;/span&gt;" style="ellipse;whiteSpace=wrap;html=1;align=center;fontSize=11;" parent="1" vertex="1">
          <mxGeometry x="1710.0000000000002" y="670" width="100" height="40" as="geometry" />
        </mxCell>
        <mxCell id="dofvJWAU9MkykIK9WyIS-78" value="" style="endArrow=none;html=1;rounded=0;exitX=0.75;exitY=1;exitDx=0;exitDy=0;entryX=0.5;entryY=0;entryDx=0;entryDy=0;" parent="1" source="dofvJWAU9MkykIK9WyIS-71" target="dofvJWAU9MkykIK9WyIS-77" edge="1">
          <mxGeometry relative="1" as="geometry">
            <mxPoint x="1654.0700000000002" y="520.86" as="sourcePoint" />
            <mxPoint x="1788.7146609406732" y="580.0021356237306" as="targetPoint" />
          </mxGeometry>
        </mxCell>
        <mxCell id="dofvJWAU9MkykIK9WyIS-79" value="Amount" style="ellipse;whiteSpace=wrap;html=1;align=center;" parent="1" vertex="1">
          <mxGeometry x="1600.29" y="670" width="100" height="40" as="geometry" />
        </mxCell>
        <mxCell id="dofvJWAU9MkykIK9WyIS-80" value="" style="shape=link;html=1;rounded=0;entryX=0.5;entryY=1;entryDx=0;entryDy=0;exitX=0.75;exitY=0;exitDx=0;exitDy=0;" parent="1" source="dofvJWAU9MkykIK9WyIS-58" target="dofvJWAU9MkykIK9WyIS-4" edge="1">
          <mxGeometry relative="1" as="geometry">
            <mxPoint x="1450" y="540" as="sourcePoint" />
            <mxPoint x="1610" y="540" as="targetPoint" />
          </mxGeometry>
        </mxCell>
        <mxCell id="dofvJWAU9MkykIK9WyIS-81" value="N" style="resizable=0;html=1;whiteSpace=wrap;align=right;verticalAlign=bottom;" parent="dofvJWAU9MkykIK9WyIS-80" connectable="0" vertex="1">
          <mxGeometry x="1" relative="1" as="geometry">
            <mxPoint x="18" y="20" as="offset" />
          </mxGeometry>
        </mxCell>
        <mxCell id="dofvJWAU9MkykIK9WyIS-82" value="&lt;span style=&quot;border-bottom: 1px dotted&quot;&gt;Journey_time&lt;/span&gt;" style="ellipse;whiteSpace=wrap;html=1;align=center;" parent="1" vertex="1">
          <mxGeometry x="745" y="500" width="100" height="40" as="geometry" />
        </mxCell>
        <mxCell id="dofvJWAU9MkykIK9WyIS-83" value="" style="endArrow=none;html=1;rounded=0;entryX=0.25;entryY=0;entryDx=0;entryDy=0;exitX=0.5;exitY=1;exitDx=0;exitDy=0;" parent="1" source="dofvJWAU9MkykIK9WyIS-82" target="dofvJWAU9MkykIK9WyIS-62" edge="1">
          <mxGeometry relative="1" as="geometry">
            <mxPoint x="730" y="540" as="sourcePoint" />
            <mxPoint x="710" y="570" as="targetPoint" />
          </mxGeometry>
        </mxCell>
        <mxCell id="dofvJWAU9MkykIK9WyIS-84" value="Arr_time" style="ellipse;whiteSpace=wrap;html=1;align=center;" parent="1" vertex="1">
          <mxGeometry x="1500.29" y="343.5" width="100" height="40" as="geometry" />
        </mxCell>
        <mxCell id="dofvJWAU9MkykIK9WyIS-85" value="" style="endArrow=none;html=1;rounded=0;exitX=1;exitY=0;exitDx=0;exitDy=0;entryX=0;entryY=1;entryDx=0;entryDy=0;" parent="1" source="dofvJWAU9MkykIK9WyIS-4" target="dofvJWAU9MkykIK9WyIS-84" edge="1">
          <mxGeometry relative="1" as="geometry">
            <mxPoint x="1665.36" y="345" as="sourcePoint" />
            <mxPoint x="1666.7199999999998" y="360" as="targetPoint" />
          </mxGeometry>
        </mxCell>
        <mxCell id="dofvJWAU9MkykIK9WyIS-86" value="Dep_time" style="ellipse;whiteSpace=wrap;html=1;align=center;" parent="1" vertex="1">
          <mxGeometry x="1070" y="360" width="100" height="40" as="geometry" />
        </mxCell>
        <mxCell id="dofvJWAU9MkykIK9WyIS-87" value="" style="endArrow=none;html=1;rounded=0;exitX=0;exitY=0;exitDx=0;exitDy=0;entryX=1;entryY=1;entryDx=0;entryDy=0;" parent="1" source="dofvJWAU9MkykIK9WyIS-5" target="dofvJWAU9MkykIK9WyIS-86" edge="1">
          <mxGeometry relative="1" as="geometry">
            <mxPoint x="1060" y="407.5" as="sourcePoint" />
            <mxPoint x="1016" y="698.5" as="targetPoint" />
          </mxGeometry>
        </mxCell>
        <mxCell id="dofvJWAU9MkykIK9WyIS-88" value="Bed_capacity" style="ellipse;whiteSpace=wrap;html=1;align=center;direction=west;" parent="1" vertex="1">
          <mxGeometry x="890" y="203.5" width="100" height="40" as="geometry" />
        </mxCell>
        <mxCell id="dofvJWAU9MkykIK9WyIS-90" value="" style="endArrow=none;html=1;rounded=0;entryX=0.5;entryY=0;entryDx=0;entryDy=0;exitX=0.75;exitY=0;exitDx=0;exitDy=0;" parent="1" source="dofvJWAU9MkykIK9WyIS-46" target="dofvJWAU9MkykIK9WyIS-88" edge="1">
          <mxGeometry relative="1" as="geometry">
            <mxPoint x="610" y="460" as="sourcePoint" />
            <mxPoint x="770" y="460" as="targetPoint" />
          </mxGeometry>
        </mxCell>
        <mxCell id="dofvJWAU9MkykIK9WyIS-91" value="Available_beds" style="ellipse;whiteSpace=wrap;html=1;align=center;" parent="1" vertex="1">
          <mxGeometry x="645" y="550" width="100" height="40" as="geometry" />
        </mxCell>
        <mxCell id="dofvJWAU9MkykIK9WyIS-93" value="" style="endArrow=none;html=1;rounded=0;entryX=0;entryY=0.5;entryDx=0;entryDy=0;exitX=1;exitY=0.5;exitDx=0;exitDy=0;" parent="1" source="dofvJWAU9MkykIK9WyIS-91" target="dofvJWAU9MkykIK9WyIS-62" edge="1">
          <mxGeometry relative="1" as="geometry">
            <mxPoint x="680" y="690" as="sourcePoint" />
            <mxPoint x="840" y="690" as="targetPoint" />
          </mxGeometry>
        </mxCell>
        <mxCell id="dofvJWAU9MkykIK9WyIS-94" value="&lt;span style=&quot;border-bottom: 1px dotted&quot;&gt;Seat_type&lt;/span&gt;" style="ellipse;whiteSpace=wrap;html=1;align=center;" parent="1" vertex="1">
          <mxGeometry x="950" y="970" width="100" height="40" as="geometry" />
        </mxCell>
        <mxCell id="dofvJWAU9MkykIK9WyIS-95" value="" style="endArrow=none;html=1;rounded=0;entryX=0;entryY=0.5;entryDx=0;entryDy=0;exitX=0.75;exitY=1;exitDx=0;exitDy=0;" parent="1" source="dofvJWAU9MkykIK9WyIS-34" target="dofvJWAU9MkykIK9WyIS-94" edge="1">
          <mxGeometry relative="1" as="geometry">
            <mxPoint x="810" y="1040" as="sourcePoint" />
            <mxPoint x="970" y="1040" as="targetPoint" />
          </mxGeometry>
        </mxCell>
      </root>
    </mxGraphModel>
  </diagram>
</mxfile>
